<?xml version="1.0" encoding="UTF-8"?> <!-- Generator: Adobe Illustrator 16.0.0, SVG Export Plug-In . SVG Version: 6.00 Build 0) --> <svg xmlns="http://www.w3.org/2000/svg" xmlns:xlink="http://www.w3.org/1999/xlink" version="1.1" id="Layer_1" x="0px" y="0px" width="800px" height="294px" viewBox="0 0 800 294" style="enable-background:new 0 0 800 294;" xml:space="preserve"> <g> <g> <path style="fill:#222222;" d="M50.456,238.458c0-18.677,15.399-42.386,46.35-71.202c-10.139-9.452-26.072-22.946-47.646-40.632 c-13.417-12.883-21.574-22.946-24.395-30.188c-1.906-5.184-2.897-10.749-2.897-16.542c0-21.117,14.789-40.022,44.292-56.717 c13.875-6.404,25.843-9.529,35.982-9.529c11.206,0,18.448,4.269,21.574,12.807l0.839,5.413c0,5.793-1.296,8.69-3.736,8.69h-1.22 c-0.609-0.152-1.143-0.838-1.677-2.058c0.534-3.507,0.838-5.794,0.838-7.09c0-6.861-4.727-10.901-14.103-11.968h-2.516 c-18.22,0-37.278,8.385-57.099,25.233C33.456,56.643,27.662,68.077,27.662,79.055v2.897c0,14.332,12.273,31.027,36.82,50.085 c14.942,12.045,27.215,22.717,36.897,31.866c16.619-13.722,31.713-24.318,45.053-31.866l1.677-0.838 c2.211,0.381,3.354,1.296,3.354,2.897c0,1.601-4.269,4.65-12.883,9.148c-12.121,8.233-23.328,16.39-33.542,24.395 c10.215,11.815,15.323,22.717,15.323,32.704c0,16.466-13.798,33.161-41.395,50.085c-6.022,2.516-10.825,3.735-14.484,3.735 C56.097,254.162,51.447,248.901,50.456,238.458z M107.935,218.942c4.422-6.556,6.632-12.35,6.632-17.381v-2.439 c0-7.776-4.498-16.924-13.646-27.368c-13.875,12.197-23.48,22.26-28.969,30.265C61.433,216.579,56.25,228.624,56.25,238v0.839 c0,6.327,2.973,9.529,9.072,9.529C75.841,248.368,90.021,238.534,107.935,218.942z"></path> <path style="fill:#222222;" d="M64.482,254.662c-8.62,0-13.507-5.436-14.524-16.157c-0.002-18.723,15.514-42.678,46.114-71.249 c-9.553-8.873-24.583-21.681-47.229-40.245c-13.477-12.938-21.725-23.155-24.543-30.393c-1.946-5.293-2.931-10.917-2.931-16.724 c0-21.197,14.987-40.426,44.545-57.152c13.803-6.373,25.979-9.594,36.228-9.594c11.437,0,18.853,4.419,22.043,13.135l0.863,5.508 c0.006,6.175-1.419,9.267-4.23,9.267l-1.341-0.015c-0.768-0.192-1.389-0.914-2.014-2.343l-0.058-0.132l0.022-0.143 c0.514-3.378,0.833-5.729,0.833-7.015c0-6.581-4.596-10.44-13.66-11.472l-2.459,0.003c-18.068,0-37.17,8.45-56.775,25.114 c-11.404,11.783-17.205,23.233-17.205,34v2.897c0,14.103,12.323,30.821,36.627,49.69c14.204,11.45,26.517,22.075,36.613,31.594 c16.17-13.327,31.236-23.969,44.785-31.634l1.847-0.924l0.162,0.028c2.501,0.431,3.77,1.571,3.77,3.39 c0,1.169-1.363,3.436-13.152,9.591c-11.796,8.016-22.931,16.106-33.053,24.022c10.022,11.705,15.102,22.682,15.102,32.633 c0,16.575-14.007,33.569-41.633,50.511C73.165,253.393,68.226,254.662,64.482,254.662z M102.142,14.147 c-10.103,0-22.139,3.19-35.772,9.483C37.185,40.147,22.368,59.083,22.368,79.894c0,5.688,0.964,11.196,2.866,16.37 c2.763,7.092,10.93,17.188,24.271,30c22.946,18.809,38.093,31.726,47.64,40.627l0.393,0.365l-0.393,0.366 c-30.65,28.536-46.19,52.368-46.19,70.836c0.972,10.216,5.397,15.204,13.527,15.204c3.611,0,8.419-1.244,14.292-3.696 c27.241-16.713,41.087-33.421,41.087-49.624c0-9.816-5.114-20.71-15.201-32.377l-0.343-0.397l0.413-0.323 c10.25-8.032,21.545-16.247,33.57-24.415c11.435-5.975,12.664-8.098,12.664-8.734c0-0.798-0.292-1.904-2.78-2.375l-1.528,0.764 c-13.57,7.678-28.704,18.383-44.958,31.804l-0.341,0.281l-0.321-0.304c-10.137-9.578-22.541-20.291-36.868-31.84 c-24.553-19.063-37.006-36.047-37.006-50.474v-2.897c0-11.035,5.895-22.72,17.521-34.729 C64.51,27.471,83.83,18.941,102.142,18.941h2.516c9.709,1.102,14.603,5.295,14.603,12.468c0,1.329-0.314,3.673-0.822,7.021 c0.43,0.948,0.843,1.495,1.231,1.627h1.149c2.674,0,3.236-4.454,3.236-8.19l-0.833-5.336 C120.215,18.346,113.114,14.147,102.142,14.147z M65.321,248.868c-6.352,0-9.572-3.374-9.572-10.029V238 c0-9.561,5.315-21.765,15.798-36.274c5.512-8.039,15.286-18.253,29.044-30.348l0.376-0.33l0.33,0.377 c9.137,10.431,13.77,19.75,13.77,27.697v2.439c0,5.11-2.26,11.052-6.718,17.66C90.099,239.189,76.039,248.868,65.321,248.868z M100.875,172.461c-13.497,11.895-23.088,21.934-28.509,29.841C62.001,216.646,56.75,228.654,56.75,238v0.839 c0,6.076,2.804,9.029,8.572,9.029c10.276,0,24.489-9.846,42.245-29.263c4.299-6.383,6.501-12.137,6.501-17.044v-2.439 C114.067,191.52,109.629,182.551,100.875,172.461z"></path> </g> <g> <path style="fill:#222222;" d="M168.993,151.248v-10.215h-0.458c-5.641,12.73-10.825,19.135-15.399,19.135h-1.677 c-4.345-0.991-6.48-4.422-6.48-10.139v-2.897c0.61-9.986,1.982-15.399,4.041-16.238h1.22c0.458,0,0.991,0.534,1.677,1.601 c-1.677,8.996-2.439,14.332-2.439,15.856c0.381,4.346,1.296,6.556,2.82,6.556c3.964,0,9.225-8.538,15.856-25.614 c1.144-5.489,2.211-8.157,3.278-8.157h1.22c0.762,0.229,1.448,1.144,1.982,2.821c-0.534,8.157-0.915,16.314-1.22,24.395 c0.305,4.574,0.686,7.852,1.22,9.758h0.458c3.125-2.82,7.699-10.978,13.798-24.395l0.839-0.381c1.83,0,2.82,0.915,2.82,2.821 c-3.278,9.072-7.623,17.457-13.036,25.233c-1.753,1.601-3.659,2.439-5.641,2.439C171.127,163.826,169.527,159.633,168.993,151.248 z"></path> <path style="fill:#222222;" d="M173.872,164.326c-3.06,0-4.819-4.268-5.378-13.047l-0.001-8.931 c-5.525,12.158-10.689,18.319-15.356,18.319l-1.789-0.013c-4.558-1.039-6.869-4.615-6.869-10.626v-2.897 c0.629-10.311,2.052-15.763,4.352-16.701l0.188-0.037h1.22c0.646,0,1.273,0.547,2.098,1.831l0.107,0.167l-0.036,0.195 c-1.792,9.613-2.431,14.446-2.431,15.765c0.44,4.997,1.505,6.056,2.32,6.056c3.694,0,8.872-8.51,15.39-25.295 c1.543-7.439,2.713-8.476,3.745-8.476l1.364,0.021c0.963,0.29,1.742,1.349,2.314,3.148l0.028,0.09l-0.006,0.094 c-0.475,7.254-0.874,15.229-1.219,24.381c0.294,4.365,0.64,7.309,1.082,9.144c3.033-2.934,7.434-10.796,13.438-24.007l0.078-0.17 l1.216-0.504c2.141,0,3.32,1.179,3.32,3.321l-0.03,0.17c-3.258,9.017-7.664,17.546-13.096,25.349l-0.073,0.084 C177.982,163.462,175.971,164.326,173.872,164.326z M168.21,140.532h1.283v10.715c0.503,7.891,2.018,12.079,4.379,12.079 c1.826,0,3.597-0.765,5.263-2.271c5.35-7.694,9.694-16.102,12.913-24.987c-0.025-1.49-0.731-2.202-2.213-2.234l-0.567,0.258 c-6.183,13.586-10.71,21.564-13.84,24.388l-0.143,0.129h-1.029l-0.102-0.365c-0.519-1.854-0.912-4.986-1.237-9.859 c0.344-9.172,0.741-17.127,1.213-24.365c-0.434-1.325-0.983-2.165-1.558-2.383h-1.138c-0.196,0-1.25,0.374-2.789,7.759 c-6.8,17.529-12.139,26.012-16.346,26.012c-2.423,0-3.055-4.002-3.318-7.012c-0.002-1.794,0.898-7.675,2.409-15.794 c-0.762-1.146-1.089-1.207-1.149-1.207h-1.113c-1.072,0.534-2.89,3.343-3.648,15.768l0.001,2.867c0,5.536,1.975,8.689,6.037,9.639 h1.62c4.314,0,9.481-6.514,14.942-18.837L168.21,140.532z"></path> </g> <g> <path style="fill:#222222;" d="M136.592,285.341c-6.479-1.144-9.758-6.022-9.758-14.637c-0.229,0-0.381-1.22-0.381-3.659 c0-22.793,11.664-50.237,34.991-82.103c6.785-8.462,14.561-17,23.175-25.614c4.269-20.812,6.861-31.637,7.7-32.475l1.601-0.839 c1.677,0,2.592,1.067,2.897,3.278l-4.879,23.174c13.646-11.968,22.336-18.601,25.996-19.973c1.906,0,2.82,0.991,2.82,2.897 c-0.305,1.067-6.708,6.327-19.058,15.856c-8.69,7.242-13.036,11.816-13.036,13.798c-19.135,80.196-36.211,120.295-51.229,120.295 H136.592z M166.323,226.413c5.413-17.305,10.52-35.981,15.399-56.107c-18.982,20.507-31.713,38.65-38.192,54.507 c-7.624,16.009-11.359,30.111-11.359,42.232v0.839c0.076,6.403,1.296,10.291,3.659,11.816h1.601 C144.597,279.7,154.202,261.938,166.323,226.413z M191.938,120.754v-0.839c0-1.524,1.753-3.812,5.26-6.937h2.058 c1.067,0.458,1.601,1.372,1.601,2.897c-0.762,2.363-2.745,4.65-6.099,6.861C193.539,122.736,192.624,122.05,191.938,120.754z"></path> <path style="fill:#222222;" d="M137.431,285.841h-0.839c-6.773-1.188-10.195-6.196-10.257-14.895 c-0.244-0.4-0.382-1.406-0.382-3.901c0-22.871,11.805-50.594,35.087-82.397c6.546-8.166,14.32-16.762,23.119-25.566 c6.396-31.172,7.457-32.233,7.806-32.582l0.122-0.089l1.709-0.896h0.123c1.912,0,3.053,1.248,3.392,3.71l0.012,0.086 l-4.588,21.793c12.919-11.278,21.335-17.695,25.022-19.078l0.176-0.032c2.172,0,3.32,1.175,3.32,3.397l-0.019,0.137 c-0.28,0.981-3.658,4.097-19.233,16.115c-10.611,8.842-12.841,12.17-12.841,13.402l-0.014,0.116 C169.771,246.366,152.854,285.841,137.431,285.841z M127.124,270.204h0.21v0.5c0,8.408,3.057,13.034,9.345,14.145l0.752-0.008 c14.682,0,31.75-40.329,50.729-119.857c0.043-1.39,1.548-4.398,13.214-14.12c4.511-3.481,18.096-13.963,18.877-15.563 c-0.025-1.563-0.717-2.278-2.229-2.305c-2.59,1.01-9.167,5.297-25.756,19.848l-1.128,0.989l5.17-24.556 c-0.346-2.341-1.372-2.731-2.27-2.76l-1.399,0.733c-0.423,0.618-1.983,5.137-7.531,32.179l-0.03,0.146l-0.106,0.106 c-8.817,8.817-16.602,17.421-23.138,25.573c-23.141,31.611-34.881,59.136-34.881,81.79 C126.954,269.078,127.058,269.893,127.124,270.204z M137.431,280.2h-1.749l-0.124-0.08c-2.538-1.638-3.81-5.639-3.888-12.23 v-0.845c0-12.271,3.838-26.552,11.407-42.447c6.442-15.767,19.324-34.156,38.277-54.632l1.306-1.41l-0.453,1.868 c-4.918,20.29-10.103,39.178-15.408,56.139C154.484,262.659,144.879,280.2,137.431,280.2z M135.982,279.2h1.449 c6.87,0,16.431-17.814,28.419-52.948c5.13-16.403,10.151-34.628,14.929-54.184c-18.155,19.815-30.528,37.618-36.786,52.934 c-7.517,15.785-11.322,29.922-11.322,42.043v0.839C132.743,273.91,133.856,277.718,135.982,279.2z M194.908,123.236h-0.15 c-1.375,0-2.473-0.756-3.263-2.248l-0.058-0.11v-0.963c0-1.687,1.725-4.01,5.428-7.31l0.142-0.127l2.445,0.041 c1.281,0.549,1.904,1.647,1.904,3.356l-0.024,0.153c-0.808,2.505-2.927,4.902-6.299,7.125L194.908,123.236z M192.438,120.627 c0.578,1.042,1.275,1.556,2.176,1.605c3.067-2.046,4.999-4.21,5.743-6.436c-0.016-1.209-0.391-1.931-1.208-2.318h-1.76 c-3.286,2.947-4.951,5.112-4.951,6.437V120.627z"></path> </g> <g> <path style="fill:#222222;" d="M231.272,158.108c0-5.031,0.838-10.596,2.439-16.619v-0.458h-0.381 c-1.296,2.058-4.574,5.031-9.758,8.996l-2.821,0.762c-3.812,0-5.717-2.973-5.717-8.919c0-8.614,3.812-16.161,11.359-22.793 c2.668-1.067,4.574-1.601,5.717-1.601c5.946,1.22,8.919,3.278,8.919,6.099c-0.534,1.601-1.601,2.439-3.202,2.439 c-2.744-1.906-4.65-2.82-5.717-2.82c-5.184,0-8.996,5.946-11.359,17.838v3.659c1.22,0,7.318-5.641,18.296-17.076h1.982 c0.457,0,0.991,0.534,1.677,1.677v0.762c-4.116,13.798-6.099,22.718-6.099,26.834c0.229,0.457,0.381,1.067,0.381,1.677h0.381 c5.717-4.497,10.825-10.596,15.475-18.295c2.592-5.718,4.803-8.538,6.48-8.538c1.906,0,2.896,0.762,2.896,2.439 c-3.583,8.69-10.367,18.143-20.354,28.435c-2.516,1.067-4.269,1.601-5.26,1.601C233.636,164.207,231.882,162.225,231.272,158.108z "></path> <path style="fill:#222222;" d="M236.608,164.707c-3.228,0-5.189-2.195-5.831-6.525c-0.005-4.772,0.731-10.061,2.185-15.796 c-1.603,1.968-4.542,4.565-9.086,8.04l-0.173,0.086l-2.951,0.779c-4.125,0-6.217-3.169-6.217-9.419 c0-8.651,3.879-16.447,11.529-23.169l0.145-0.089c2.753-1.101,4.684-1.637,5.903-1.637l0.101,0.01 c6.184,1.269,9.319,3.485,9.319,6.588l-0.026,0.158c-0.606,1.819-1.877,2.781-3.676,2.781h-0.157l-0.128-0.089 c-3.421-2.376-4.872-2.731-5.432-2.731c-4.913,0-8.569,5.866-10.869,17.436l0.008,2.842c1.254-0.754,5.187-3.941,17.437-16.703 l0.148-0.154h2.195c0.668,0,1.298,0.574,2.105,1.92l0.071,0.119l-0.021,1.044c-3.94,13.209-6.04,22.392-6.077,26.579 c0.153,0.334,0.264,0.713,0.326,1.101c5.474-4.393,10.379-10.242,14.983-17.865c2.667-5.891,4.935-8.78,6.908-8.78 c2.807,0,3.396,1.599,3.396,2.939l-0.038,0.19c-3.572,8.665-10.455,18.285-20.458,28.593l-0.164,0.111 C239.462,164.171,237.678,164.707,236.608,164.707z M233.055,140.532h1.157l-0.017,1.086c-1.608,6.047-2.423,11.595-2.423,16.49 c0.568,3.796,2.106,5.599,4.836,5.599c0.908,0,2.581-0.512,4.972-1.521c9.839-10.152,16.615-19.609,20.141-28.111 c-0.02-0.927-0.355-1.843-2.396-1.843c-0.688,0-2.651,0.803-6.024,8.245c-4.799,7.953-9.9,13.981-15.622,18.481l-0.136,0.107 h-1.054v-0.5c0-0.499-0.123-1.042-0.329-1.453l-0.053-0.105v-0.118c0-4.281,2.052-13.334,6.099-26.907v-0.55 c-0.769-1.252-1.114-1.317-1.177-1.317h-1.77c-16.401,17.076-17.932,17.076-18.509,17.076h-0.5v-4.159 c2.415-12.201,6.401-18.338,11.859-18.338c1.201,0,3.121,0.922,5.869,2.817c1.255-0.049,2.09-0.71,2.549-2.017 c-0.06-2.513-2.908-4.37-8.468-5.518c-1.07,0.015-2.887,0.531-5.402,1.533c-7.485,6.602-11.125,13.917-11.125,22.361 c0,5.63,1.686,8.385,5.152,8.419l2.66-0.719c5.218-3.995,8.345-6.875,9.56-8.805L233.055,140.532z"></path> </g> <g> <path style="fill:#222222;" d="M223.953,269.484c-0.534-3.125-0.762-5.031-0.762-5.641c0-14.561,9.453-36.287,28.435-65.104 c6.861-10.063,15.552-21.04,25.996-32.856c5.717-5.031,8.538-9.604,8.538-13.874c1.144-7.852,1.677-11.893,1.677-12.197h-0.458 c-9.376,13.874-17.229,20.735-23.556,20.735h-0.838c-5.413,0-8.081-4.192-8.081-12.579c1.372-15.475,3.202-23.556,5.641-24.395 c1.906,0,3.125,0.839,3.659,2.439c-2.439,8.996-3.659,17-3.659,24.014c0.534,3.202,1.144,4.878,2.058,4.878h0.839 c5.946,0,13.798-8.461,23.556-25.233c2.821-6.479,4.498-9.758,4.879-9.758c0.458-0.305,0.991-0.381,1.601-0.381 c1.677,0.152,2.439,0.991,2.439,2.439c-0.229,4.117-1.601,13.875-4.041,29.273c12.579-10.901,21.117-17,25.614-18.296 c0.61,0,1.449,0.61,2.439,1.982v1.677c-0.381,0.762-4.879,3.888-13.417,9.3c-11.13,9.301-16.695,14.865-16.695,16.695 c-13.951,79.13-30.569,118.694-50.009,118.694C231.423,281.301,226.164,277.413,223.953,269.484z M273.199,214.216 c3.202-12.121,6.632-27.597,10.139-46.35c-19.134,21.422-33.313,41.395-42.69,59.767c-7.852,15.323-11.816,27.673-11.816,36.973 c0,7.318,3.431,10.978,10.215,10.978h1.601C251.092,275.583,261.993,255.153,273.199,214.216z"></path> <path style="fill:#222222;" d="M239.809,281.801c-8.587,0-14.084-4.099-16.338-12.182c-0.486-2.829-0.781-5.022-0.781-5.775 c0-14.656,9.595-36.652,28.517-65.379c6.836-10.025,15.595-21.097,26.039-32.912c5.675-5,8.413-9.415,8.413-13.543 c0.822-5.672,1.325-9.325,1.545-11.053c-9.146,13.333-17.01,20.091-23.382,20.091h-0.838c-5.694,0-8.581-4.4-8.581-13.079 c1.848-20.859,4.166-24.244,5.979-24.867l0.163-0.027c2.098,0,3.527,0.962,4.133,2.781l0.048,0.143l-0.04,0.146 c-2.417,8.911-3.642,16.946-3.642,23.883c0.664,3.944,1.311,4.378,1.558,4.378h0.839c5.698,0,13.478-8.406,23.124-24.984 c3.792-8.718,4.684-9.84,5.133-9.985c0.594-0.355,1.259-0.402,1.779-0.402c2.438,0.219,2.939,1.719,2.939,2.939 c-0.215,3.889-1.435,12.794-3.833,28.002c12.176-10.483,20.284-16.212,24.769-17.505l0.139-0.02c0.839,0,1.796,0.736,2.845,2.189 l0.095,0.131v1.957l-0.053,0.105c-0.176,0.352-0.644,1.288-13.597,9.499c-14.317,11.969-16.462,15.335-16.462,16.273 C276.18,242.841,259.661,281.801,239.809,281.801z M287.113,139.313h1.223v0.5c0,0.422-0.692,5.467-1.683,12.27 c0.005,4.359-2.843,9.021-8.703,14.177c-10.371,11.741-19.104,22.778-25.913,32.763c-18.809,28.554-28.348,50.365-28.348,64.822 c0,0.523,0.198,2.293,0.755,5.557c2.138,7.655,7.167,11.4,15.364,11.4c19.02,0,35.679-39.796,49.517-118.281 c-0.008-1.191,1.741-4.353,16.866-16.992c10.739-6.812,12.864-8.597,13.238-9.064v-1.366c-1.027-1.386-1.648-1.612-1.881-1.642 c-4.429,1.32-12.956,7.433-25.345,18.17l-1.036,0.898l0.215-1.354c2.534-15.998,3.816-25.283,4.035-29.223 c-0.001-1.19-0.613-1.789-1.986-1.914c-0.57,0.002-0.966,0.091-1.278,0.299l-0.112,0.075c-0.231,0.276-1.231,1.761-4.585,9.467 c-10.002,17.198-17.849,25.533-24.014,25.533h-0.839c-1.385,0-2.021-2.117-2.551-5.296c-0.007-7.067,1.216-15.14,3.629-24.076 c-0.482-1.293-1.48-1.935-3.045-1.958c-1.493,0.637-3.586,5.364-5.233,23.938c0.002,8.083,2.481,12.035,7.583,12.035h0.838 c6.156,0,13.942-6.902,23.142-20.515L287.113,139.313z M240.647,276.083h-1.601c-7.11,0-10.715-3.861-10.715-11.478 c0-9.312,3.994-21.828,11.871-37.2c9.479-18.574,23.867-38.718,42.762-59.872l1.194-1.337l-0.329,1.762 c-3.386,18.105-6.799,33.712-10.147,46.386C262.468,255.313,251.354,276.083,240.647,276.083z M282.514,169.545 c-18.249,20.599-32.181,40.212-41.421,58.315c-7.804,15.23-11.761,27.594-11.761,36.745c0,7.051,3.178,10.478,9.715,10.478h1.601 c10.2,0,20.99-20.523,32.069-60.999C275.948,201.853,279.242,186.875,282.514,169.545z"></path> </g> <g> <path style="fill:#222222;" d="M361.992,238.458c0-18.677,15.399-42.386,46.35-71.202c-10.139-9.452-26.072-22.946-47.646-40.632 c-13.417-12.883-21.574-22.946-24.395-30.188c-1.906-5.184-2.897-10.749-2.897-16.542c0-21.117,14.79-40.022,44.292-56.717 c13.875-6.404,25.843-9.529,35.981-9.529c11.207,0,18.449,4.269,21.574,12.807l0.839,5.413c0,5.793-1.296,8.69-3.735,8.69h-1.22 c-0.61-0.152-1.144-0.838-1.678-2.058c0.534-3.507,0.839-5.794,0.839-7.09c0-6.861-4.727-10.901-14.104-11.968h-2.516 c-18.219,0-37.277,8.385-57.098,25.233c-11.587,11.969-17.381,23.403-17.381,34.381v2.897c0,14.332,12.273,31.027,36.82,50.085 c14.942,12.045,27.215,22.717,36.897,31.866c16.618-13.722,31.713-24.318,45.054-31.866l1.677-0.838 c2.211,0.381,3.354,1.296,3.354,2.897c0,1.601-4.27,4.65-12.884,9.148c-12.121,8.233-23.327,16.39-33.542,24.395 c10.215,11.815,15.322,22.717,15.322,32.704c0,16.466-13.798,33.161-41.394,50.085c-6.022,2.516-10.825,3.735-14.484,3.735 C367.633,254.162,362.983,248.901,361.992,238.458z M419.472,218.942c4.422-6.556,6.633-12.35,6.633-17.381v-2.439 c0-7.776-4.498-16.924-13.646-27.368c-13.874,12.197-23.479,22.26-28.968,30.265c-10.52,14.561-15.704,26.605-15.704,35.981v0.839 c0,6.327,2.973,9.529,9.071,9.529C387.378,248.368,401.557,238.534,419.472,218.942z"></path> <path style="fill:#222222;" d="M376.019,254.662c-8.62,0-13.507-5.436-14.524-16.157c-0.002-18.723,15.514-42.678,46.114-71.249 c-9.549-8.87-24.58-21.678-47.229-40.245c-13.477-12.938-21.725-23.155-24.543-30.393c-1.946-5.293-2.931-10.917-2.931-16.724 c0-21.197,14.987-40.426,44.545-57.152c13.803-6.373,25.979-9.594,36.228-9.594c11.438,0,18.854,4.419,22.044,13.135l0.863,5.508 c0.006,6.175-1.419,9.267-4.229,9.267l-1.341-0.015c-0.768-0.192-1.389-0.915-2.015-2.343l-0.059-0.133l0.022-0.143 c0.515-3.377,0.833-5.728,0.833-7.015c0-6.581-4.596-10.44-13.66-11.472l-2.459,0.003c-18.067,0-37.169,8.45-56.774,25.114 c-11.404,11.783-17.205,23.233-17.205,34v2.897c0,14.103,12.323,30.821,36.627,49.69c14.204,11.45,26.517,22.075,36.613,31.594 c16.169-13.326,31.234-23.968,44.785-31.634l1.846-0.924l0.162,0.028c2.501,0.431,3.77,1.571,3.77,3.39 c0,1.169-1.363,3.436-13.152,9.591c-11.794,8.015-22.929,16.104-33.053,24.022c10.021,11.704,15.102,22.681,15.102,32.633 c0,16.575-14.007,33.569-41.633,50.511C384.701,253.393,379.763,254.662,376.019,254.662z M413.678,14.147 c-10.103,0-22.138,3.19-35.772,9.483c-29.185,16.517-44.001,35.453-44.001,56.263c0,5.688,0.964,11.196,2.866,16.37 c2.763,7.092,10.93,17.188,24.271,30c22.949,18.812,38.097,31.729,47.64,40.627l0.393,0.365l-0.393,0.366 c-30.65,28.536-46.19,52.368-46.19,70.836c0.972,10.216,5.397,15.204,13.527,15.204c3.611,0,8.419-1.244,14.292-3.696 c27.24-16.713,41.087-33.421,41.087-49.624c0-9.817-5.114-20.71-15.2-32.377l-0.344-0.397l0.413-0.323 c10.252-8.034,21.547-16.249,33.569-24.415c11.436-5.975,12.665-8.098,12.665-8.734c0-0.798-0.292-1.904-2.779-2.375l-1.528,0.764 c-13.572,7.679-28.706,18.383-44.959,31.804l-0.341,0.281l-0.321-0.304c-10.136-9.578-22.54-20.291-36.867-31.84 c-24.553-19.063-37.006-36.047-37.006-50.474v-2.897c0-11.035,5.895-22.72,17.521-34.729 c19.827-16.855,39.146-25.385,57.458-25.385h2.516c9.709,1.102,14.604,5.295,14.604,12.468c0,1.331-0.314,3.674-0.822,7.02 c0.43,0.949,0.844,1.496,1.231,1.628h1.149c2.674,0,3.235-4.454,3.235-8.19l-0.833-5.336 C431.752,18.346,424.651,14.147,413.678,14.147z M376.857,248.868c-6.351,0-9.571-3.374-9.571-10.029V238 c0-9.561,5.315-21.765,15.798-36.274c5.512-8.038,15.286-18.252,29.043-30.348l0.376-0.33l0.33,0.377 c9.138,10.432,13.771,19.75,13.771,27.697v2.439c0,5.109-2.261,11.052-6.719,17.66 C401.635,239.189,387.575,248.868,376.857,248.868z M412.411,172.461c-13.497,11.895-23.087,21.934-28.509,29.841 c-10.365,14.345-15.616,26.353-15.616,35.698v0.839c0,6.076,2.804,9.029,8.571,9.029c10.276,0,24.489-9.846,42.245-29.263 c4.299-6.384,6.502-12.138,6.502-17.044v-2.439C425.604,191.52,421.166,182.551,412.411,172.461z"></path> </g> <g> <path style="fill:#222222;" d="M467.723,167.866c0-5.107,1.754-14.941,5.261-29.655h-0.382c-2.363,1.067-4.955,1.601-7.699,1.601 c-5.107,0-8.69-2.592-10.597-7.7l-0.838-5.26c1.448-10.368,4.345-15.476,8.538-15.476h2.058c2.745,0,4.65,2.059,5.718,6.099v2.439 c0,3.659-1.753,8.462-5.336,14.256c2.973,0,7.242-1.373,13.035-4.117c1.906,0,2.821,0.838,2.821,2.439 c-4.574,17.534-6.861,29.197-6.861,34.991c0,1.372,0.152,2.744,0.381,4.04c4.346-2.211,9.834-7.928,16.238-17.076l16.313-23.175 c1.982,0,3.202,0.534,3.659,1.677v1.22c0,2.592-8.31,14.408-24.852,35.372c-5.031,5.108-8.844,7.7-11.359,7.7 C469.781,177.243,467.723,174.117,467.723,167.866z M464.445,118.696c0-1.067-0.534-1.753-1.602-2.058 c-2.439,2.668-3.659,6.175-3.659,10.596l0.382,3.278h0.838C463.149,125.252,464.445,121.288,464.445,118.696z"></path> <path style="fill:#222222;" d="M473.821,177.743c-4.379,0-6.599-3.323-6.599-9.877c0-5.051,1.665-14.537,5.087-28.983 c-2.283,0.949-4.771,1.43-7.407,1.43c-5.355,0-9.078-2.7-11.065-8.025l-0.875-5.43l0.011-0.074 c1.475-10.555,4.514-15.906,9.033-15.906h2.058c2.98,0,5.066,2.177,6.201,6.471l0.017,0.128v2.439 c0,3.65-1.655,8.261-4.921,13.714c2.806-0.245,6.717-1.569,11.906-4.027l0.214-0.048c2.142,0,3.321,1.044,3.321,2.939 l-0.017,0.126c-4.542,17.411-6.845,29.141-6.845,34.865c0,1.019,0.088,2.114,0.261,3.267c4.234-2.413,9.428-7.988,15.449-16.59 l16.463-23.388h0.26c2.239,0,3.588,0.651,4.123,1.992l0.036,0.186v1.22c0,1.739-2.587,7.33-24.959,35.681 C480.335,175.176,476.503,177.743,473.821,177.743z M472.494,137.711h1.122l-0.146,0.616c-3.53,14.814-5.247,24.477-5.247,29.539 c0,5.974,1.831,8.877,5.599,8.877c2.366,0,6.068-2.541,11.003-7.551c20.415-25.877,24.708-33.332,24.708-35.021v-1.117 c-0.376-0.817-1.327-1.236-2.902-1.276l-16.161,22.959c-6.406,9.151-11.932,14.95-16.421,17.233l-0.602,0.307l-0.117-0.665 c-0.258-1.462-0.389-2.851-0.389-4.127c0-5.802,2.309-17.596,6.861-35.054c-0.013-0.871-0.3-1.84-2.211-1.876 c-5.863,2.77-10.164,4.116-13.146,4.116h-0.897l0.473-0.763c3.49-5.645,5.261-10.353,5.261-13.993v-2.374 c-1.02-3.811-2.728-5.664-5.218-5.664h-2.058c-3.933,0-6.635,5.036-8.032,14.971l0.826,5.186 c1.801,4.797,5.208,7.278,10.103,7.278c2.686,0,5.206-0.524,7.493-1.557L472.494,137.711z M460.707,131.012h-1.586l-0.434-3.721 c-0.003-4.562,1.272-8.241,3.787-10.991l0.209-0.229l0.298,0.085c1.284,0.367,1.964,1.245,1.964,2.539 c0,2.784-1.379,6.837-4.098,12.048L460.707,131.012z M460.011,130.012h0.09c2.516-4.87,3.845-8.779,3.845-11.316 c0-0.744-0.295-1.21-0.949-1.478c-2.228,2.562-3.312,5.842-3.312,10.016L460.011,130.012z"></path> </g> <g> <path style="fill:#222222;" d="M521.313,114.656c4.04,0.838,6.022,2.668,6.022,5.413v2.21c0,3.735-5.336,9.148-16.161,16.238 c-1.067,4.04-1.602,8.004-1.602,11.816v0.915c0,5.108,1.22,7.624,3.813,7.624h1.296c7.775-1.296,17.533-8.843,29.273-22.565 c4.803-14.408,9.604-21.65,14.255-21.65h1.296c3.507,0,5.489,2.134,6.022,6.403c0,4.879-5.412,11.13-16.161,18.753 c-0.687,3.354-0.991,6.099-0.991,8.233v2.592c0,4.421,1.144,6.632,3.507,6.632h0.305c7.09,0,17.687-8.233,31.866-24.775h1.219 c1.373,0,2.363,0.838,2.897,2.516c-0.839,3.507-7.547,10.597-20.05,21.346c-6.251,4.421-11.358,6.708-15.322,6.708h-0.61 c-4.04,0-6.86-2.135-8.614-6.403c-0.609-2.287-0.914-4.193-0.914-5.718v-4.421c-12.045,12.044-21.422,18.067-27.978,18.067h-1.296 c-4.498,0-7.395-2.592-8.92-7.928c-0.457-1.678-0.609-3.507-0.609-5.413v-1.601c0-12.045,3.812-22.946,11.435-32.78 c1.982-1.448,3.659-2.21,5.107-2.21H521.313z M521.617,121.059c0-0.458-0.305-0.686-0.914-0.686c-1.602,0-3.659,2.973-6.404,8.919 C519.178,125.633,521.617,122.889,521.617,121.059z M559.811,120.678c-0.382-0.153-0.687-0.305-0.915-0.305 c-2.059,0.686-4.193,3.888-6.403,9.529C557.371,126.091,559.811,123.041,559.811,120.678z"></path> <path style="fill:#222222;" d="M514.681,165.088h-1.296c-4.73,0-7.806-2.712-9.4-8.29c-0.424-1.555-0.629-3.368-0.629-5.55v-1.601 c0-12.077,3.883-23.209,11.539-33.086l0.101-0.098c2.125-1.552,3.892-2.307,5.402-2.307l1.017,0.01 c4.261,0.884,6.421,2.87,6.421,5.902v2.21c0,3.966-5.309,9.381-16.227,16.55c-1.02,3.918-1.536,7.787-1.536,11.503v0.915 c0,7.124,2.493,7.124,3.313,7.124h1.296c7.499-1.257,17.226-8.768,28.83-22.316c4.854-14.531,9.8-21.899,14.698-21.899h1.296 c3.759,0,5.951,2.302,6.519,6.841c0.004,5.118-5.299,11.349-16.207,19.108c-0.625,3.099-0.941,5.77-0.941,7.94v2.592 c0,6.132,2.263,6.132,3.007,6.132h0.305c6.9,0,17.494-8.277,31.486-24.601l0.15-0.175h1.448c1.123,0,2.62,0.497,3.374,2.864 l0.042,0.133l-0.032,0.135c-0.857,3.586-7.469,10.654-20.21,21.608c-6.507,4.604-11.613,6.829-15.648,6.829h-0.61 c-4.192,0-7.246-2.259-9.077-6.713c-0.638-2.38-0.951-4.348-0.951-5.908v-3.22C530.477,159.246,521.234,165.088,514.681,165.088z M515.642,117.229c-7.488,9.684-11.286,20.591-11.286,32.418v1.601c0,2.092,0.193,3.82,0.592,5.281 c1.474,5.155,4.155,7.56,8.438,7.56h1.296c6.438,0,15.732-6.029,27.624-17.92l0.854-0.854v5.628c0,1.475,0.302,3.354,0.897,5.589 c1.664,4.039,4.33,6.032,8.131,6.032h0.61c3.768,0,8.826-2.226,15.033-6.616c12.202-10.493,18.879-17.539,19.818-20.92 c-0.47-1.368-1.249-2.033-2.377-2.033h-0.989c-14.313,16.67-24.813,24.775-32.096,24.775h-0.305c-2.659,0-4.007-2.399-4.007-7.132 v-2.592c0-2.283,0.337-5.087,1.001-8.333l0.04-0.193l0.161-0.114c10.584-7.506,15.95-13.678,15.95-18.346 c-0.497-3.952-2.305-5.903-5.522-5.903h-1.296c-3.046,0-7.91,3.697-13.78,21.308l-0.095,0.167 c-11.789,13.779-21.738,21.428-29.571,22.733l-1.378,0.007c-2.902,0-4.313-2.657-4.313-8.124v-0.915 c0-3.861,0.544-7.879,1.618-11.944l0.049-0.185l0.16-0.105c10.574-6.925,15.936-12.248,15.936-15.819v-2.21 c0-2.516-1.823-4.124-5.574-4.913h-0.863C519.119,115.156,517.563,115.834,515.642,117.229z M551.36,131.421l0.666-1.701 c2.3-5.871,4.495-9.083,6.711-9.821l0.158-0.026c0.281,0,0.559,0.116,0.879,0.25l0.536,0.217v0.338 c0,2.524-2.457,5.67-7.511,9.618L551.36,131.421z M558.955,120.882c-1.646,0.622-3.411,3.108-5.26,7.404 c3.52-2.957,5.399-5.4,5.598-7.281C559.171,120.956,559.039,120.903,558.955,120.882z M513.015,130.88l0.83-1.797 c2.98-6.456,5.031-9.21,6.858-9.21c1.313,0,1.414,0.908,1.414,1.186c0,2.015-2.459,4.839-7.519,8.633L513.015,130.88z M520.703,120.873c-1.152,0-2.849,2.265-5.051,6.739c4.469-3.584,5.465-5.53,5.465-6.553 C521.117,120.972,521.117,120.873,520.703,120.873z"></path> </g> <g> <path style="fill:#222222;" d="M604.099,193.48c-1.601-0.839-2.439-2.363-2.439-4.498c0-9.147,2.592-25.309,7.775-48.332v-0.381 h-0.457c-10.368,13.493-18.372,20.278-23.938,20.278h-2.058c-3.66,0-5.87-3.354-6.48-10.139c0-9.148,4.193-17.762,12.578-25.995 c4.117-3.049,7.548-4.498,10.14-4.498h3.659c2.592,0,6.099,1.067,10.596,3.278v-0.458c10.749-44.901,19.974-73.717,27.673-86.601 c1.524-1.601,3.126-2.439,4.879-2.439c2.974,1.144,4.422,3.431,4.422,6.937c0,10.444-10.978,40.099-32.933,89.04 c-6.709,29.807-10.139,48.179-10.139,55.269c2.21,0,3.277,0.533,3.277,1.601v1.22c0,1.678-1.372,3.583-4.116,5.718H604.099z M611.035,128.454c-3.277-2.21-6.556-3.278-9.758-3.278c-8.537,0-14.941,7.623-19.058,22.793c0,4.879,0.533,7.319,1.601,7.319 C589.08,155.288,598.152,146.369,611.035,128.454z M626.511,95.14h-0.457v0.762h0.457V95.14z M644.807,41.015h-0.457 c-5.107,10.063-11.054,27.825-17.839,53.287v0.381h0.382C638.86,65.562,644.807,47.647,644.807,41.015z"></path> <path style="fill:#222222;" d="M606.71,193.98h-2.734l-0.109-0.058c-1.771-0.928-2.707-2.637-2.707-4.94 c0-9.081,2.558-25.099,7.602-47.614c-10.28,13.24-18.045,19.68-23.721,19.68h-2.058c-3.998,0-6.346-3.564-6.979-10.594 c-0.002-9.368,4.161-17.987,12.726-26.397c4.171-3.095,7.683-4.641,10.49-4.641h3.659c2.588,0,5.916,0.985,10.156,3.01 c10.67-44.545,19.984-73.664,27.684-86.546l0.066-0.088c1.662-1.746,3.377-2.595,5.241-2.595l0.18,0.033 c3.146,1.21,4.742,3.701,4.742,7.404c0,10.588-10.787,39.78-32.977,89.245c-6.626,29.484-9.94,47.386-10.09,54.575 c2.172,0.091,3.272,0.793,3.272,2.09v1.22c0,1.857-1.409,3.856-4.31,6.112L606.71,193.98z M604.226,192.98h2.14 c2.515-1.981,3.789-3.737,3.789-5.218v-1.22c0-0.73-0.935-1.101-2.777-1.101h-0.5v-0.5c0-7.014,3.226-24.61,10.151-55.379 c21.854-48.743,32.92-78.631,32.92-88.93c0-3.258-1.313-5.364-4.014-6.436c-1.528,0.028-2.964,0.763-4.387,2.243 c-7.649,12.834-16.926,41.888-27.573,86.355v1.202l-0.721-0.354c-4.355-2.141-7.846-3.227-10.375-3.227h-3.659 c-2.553,0-5.956,1.521-9.842,4.4c-8.311,8.167-12.376,16.553-12.376,25.593c0.576,6.381,2.589,9.639,5.98,9.639h2.058 c5.381,0,13.301-6.757,23.541-20.083l0.15-0.195h1.203l-0.013,0.991c-5.15,22.88-7.763,39.104-7.763,48.222 C602.159,190.87,602.854,192.215,604.226,192.98z M583.82,155.788c-1.473,0-2.101-2.338-2.101-7.819l0.018-0.131 c4.17-15.37,10.744-23.163,19.54-23.163c3.352,0,6.729,1.131,10.037,3.363l0.428,0.288l-0.301,0.418 C598.355,146.942,589.32,155.788,583.82,155.788z M582.72,148.036c0.007,6.675,1.056,6.752,1.101,6.752 c5.043,0,13.959-8.815,26.505-26.204c-3.002-1.931-6.043-2.909-9.048-2.909C593.001,125.676,586.758,133.199,582.72,148.036z M627.011,96.402h-1.457V94.64h0.457l0.017-0.468c6.763-25.377,12.777-43.338,17.876-53.384l0.14-0.274h1.264v0.5 c0,6.752-6.04,24.873-17.951,53.858l-0.128,0.31h-0.217V96.402z M644.238,42.362c-4.683,9.631-10.128,25.829-16.208,48.216 C638.138,65.707,643.581,49.516,644.238,42.362z"></path> </g> <g> <path style="fill:#222222;" d="M631.083,172.745c17.763-99.484,31.18-149.188,40.251-149.188c3.507,0,5.26,2.439,5.26,7.318 c0,8.386-8.537,30.646-25.613,66.704c-6.785,32.247-10.14,49.247-10.14,50.771h0.382c8.69-18.448,16.009-27.596,21.955-27.596 c5.488,0,8.614,3.735,9.376,11.358c0,4.193-0.305,10.825-0.839,19.897c2.897-1.372,9.148-7.776,18.754-19.058 c0-0.61,0.762-0.839,2.439-0.839c1.296,0.686,1.982,1.753,1.982,3.278c-11.664,14.865-19.439,22.336-23.176,22.336h-0.762 c-2.516,0-4.04-2.059-4.498-6.099l1.22-17.457c0-5.184-1.372-7.776-4.04-7.776c-4.422,0-11.436,10.444-21.193,31.332 c-4.116,9.986-6.556,15.628-7.318,17.076l-1.601,0.381C631.922,174.574,631.083,173.736,631.083,172.745z M671.334,29.656h-0.381 c-3.583,5.718-8.005,19.135-13.417,40.251v0.381h0.381C666.836,49.629,671.334,36.06,671.334,29.656z"></path> <path style="fill:#222222;" d="M633.488,175.707l-0.144-0.056c-2.282-0.87-2.762-2.061-2.762-2.906 c17.981-100.753,31.309-149.688,40.751-149.688c3.822,0,5.76,2.63,5.76,7.818c0,8.444-8.625,30.94-25.636,66.865 c-6.974,33.14-9.169,44.644-9.838,48.612c8.46-17.557,15.52-26.098,21.558-26.098c5.769,0,9.091,3.973,9.873,11.809 c0.003,3.844-0.24,9.732-0.783,19.063c3.047-1.949,8.864-7.985,17.717-18.376c0.186-1.136,1.951-1.136,2.924-1.136h0.124 l0.11,0.058c1.491,0.79,2.248,2.042,2.248,3.72v0.173l-0.106,0.136c-11.895,15.159-19.604,22.528-23.569,22.528h-0.762 c-1.94,0-4.382-1.135-4.995-6.543l1.218-17.548c-0.001-4.793-1.192-7.241-3.541-7.241c-4.14,0-11.117,10.445-20.74,31.044 c-3.829,9.291-6.504,15.53-7.329,17.098l-0.105,0.2L633.488,175.707z M671.334,24.057c-6.02,0-17.804,25.811-39.759,148.776 c0.008,0.832,1.051,1.453,1.983,1.829l1.225-0.292c0.917-1.826,3.518-7.908,7.196-16.833 c10.087-21.594,16.965-31.642,21.655-31.642c3.013,0,4.54,2.784,4.54,8.276l-1.221,17.492c0.423,3.662,1.77,5.564,3.999,5.564 h0.762c2.46,0,8.391-3.823,22.673-22.005c-0.046-1.17-0.573-2.025-1.606-2.609c-1.792,0.014-1.813,0.325-1.813,0.338v0.184 l-0.119,0.14c-9.816,11.529-16.005,17.805-18.921,19.186l-0.763,0.361l0.05-0.843c0.579-9.842,0.838-15.97,0.838-19.868 c-0.731-7.291-3.635-10.858-8.876-10.858c-5.731,0-12.967,9.188-21.503,27.309l-0.135,0.287h-1.199v-0.5 c0-1.674,3.699-20.217,10.15-50.874l0.037-0.111c16.964-35.821,25.565-58.191,25.565-66.49 C676.094,26.288,674.537,24.057,671.334,24.057z M658.246,70.788h-1.21l0.016-1.005c5.511-21.502,9.92-34.714,13.478-40.393 l0.147-0.234h1.157v0.5c0,6.499-4.402,19.854-13.458,40.831L658.246,70.788z M670.78,30.931 c-3.217,5.75-7.138,17.55-11.939,35.928C666.271,49.351,670.278,37.289,670.78,30.931z"></path> </g> <g> <path style="fill:#222222;" d="M705.179,158.108c0-5.031,0.839-10.596,2.439-16.619v-0.458h-0.381 c-1.296,2.058-4.574,5.031-9.758,8.996l-2.82,0.762c-3.812,0-5.718-2.973-5.718-8.919c0-8.614,3.812-16.161,11.358-22.793 c2.669-1.067,4.574-1.601,5.718-1.601c5.946,1.22,8.919,3.278,8.919,6.099c-0.533,1.601-1.601,2.439-3.201,2.439 c-2.745-1.906-4.65-2.82-5.718-2.82c-5.184,0-8.995,5.946-11.358,17.838v3.659c1.22,0,7.318-5.641,18.296-17.076h1.981 c0.458,0,0.991,0.534,1.678,1.677v0.762c-4.117,13.798-6.099,22.718-6.099,26.834c0.229,0.457,0.381,1.067,0.381,1.677h0.381 c5.718-4.497,10.825-10.596,15.476-18.295c2.592-5.718,4.803-8.538,6.479-8.538c1.906,0,2.897,0.762,2.897,2.439 c-3.583,8.69-10.368,18.143-20.354,28.435c-2.516,1.067-4.269,1.601-5.26,1.601C707.542,164.207,705.789,162.225,705.179,158.108z "></path> <path style="fill:#222222;" d="M710.516,164.707c-3.228,0-5.189-2.195-5.831-6.525c-0.006-4.771,0.73-10.059,2.185-15.795 c-1.604,1.967-4.542,4.563-9.086,8.039l-0.173,0.086l-2.951,0.779c-4.126,0-6.218-3.169-6.218-9.419 c0-8.651,3.879-16.446,11.528-23.169l0.145-0.089c2.754-1.101,4.685-1.637,5.903-1.637l0.101,0.01 c6.184,1.268,9.318,3.485,9.318,6.588l-0.025,0.158c-0.606,1.819-1.877,2.781-3.676,2.781h-0.156l-0.129-0.089 c-3.423-2.376-4.873-2.731-5.433-2.731c-4.912,0-8.569,5.866-10.868,17.436l0.008,2.842c1.254-0.754,5.187-3.941,17.438-16.703 l0.147-0.154h2.194c0.669,0,1.299,0.574,2.106,1.92l0.071,0.119l-0.021,1.044c-3.941,13.207-6.04,22.39-6.077,26.579 c0.152,0.334,0.263,0.713,0.324,1.1c5.474-4.391,10.379-10.24,14.984-17.864c2.666-5.891,4.935-8.78,6.907-8.78 c2.808,0,3.397,1.599,3.397,2.939l-0.038,0.19c-3.571,8.664-10.455,18.284-20.458,28.593l-0.163,0.111 C713.369,164.171,711.585,164.707,710.516,164.707z M706.961,140.532h1.157l-0.017,1.086c-1.607,6.049-2.423,11.597-2.423,16.49 c0.568,3.796,2.107,5.599,4.837,5.599c0.908,0,2.58-0.512,4.972-1.521c9.84-10.152,16.615-19.61,20.142-28.111 c-0.021-0.927-0.354-1.843-2.396-1.843c-0.688,0-2.651,0.803-6.024,8.245c-4.8,7.954-9.901,13.982-15.621,18.481l-0.137,0.107 h-1.054v-0.5c0-0.499-0.123-1.042-0.328-1.453l-0.053-0.105v-0.118c0-4.284,2.052-13.337,6.099-26.907v-0.549 c-0.77-1.252-1.115-1.317-1.178-1.317h-1.769c-16.401,17.076-17.932,17.076-18.509,17.076h-0.5v-4.159 c2.415-12.201,6.401-18.338,11.858-18.338c1.2,0,3.121,0.922,5.87,2.817c1.254-0.049,2.09-0.71,2.548-2.017 c-0.06-2.514-2.907-4.37-8.467-5.518c-1.07,0.015-2.887,0.531-5.403,1.533c-7.485,6.602-11.124,13.917-11.124,22.361 c0,5.63,1.686,8.385,5.152,8.419l2.66-0.719c5.219-3.996,8.346-6.876,9.561-8.805L706.961,140.532z"></path> </g> <g> <path style="fill:#222222;" d="M739.711,167.866c0-5.107,1.754-14.941,5.261-29.655h-0.382c-2.363,1.067-4.955,1.601-7.699,1.601 c-5.107,0-8.69-2.592-10.597-7.7l-0.838-5.26c1.448-10.368,4.345-15.476,8.538-15.476h2.058c2.745,0,4.65,2.059,5.718,6.099v2.439 c0,3.659-1.753,8.462-5.336,14.256c2.973,0,7.242-1.373,13.035-4.117c1.906,0,2.821,0.838,2.821,2.439 c-4.574,17.534-6.861,29.197-6.861,34.991c0,1.372,0.152,2.744,0.381,4.04c4.346-2.211,9.834-7.928,16.238-17.076l16.313-23.175 c1.982,0,3.202,0.534,3.659,1.677v1.22c0,2.592-8.31,14.408-24.852,35.372c-5.031,5.108-8.844,7.7-11.359,7.7 C741.77,177.243,739.711,174.117,739.711,167.866z M736.434,118.696c0-1.067-0.534-1.753-1.602-2.058 c-2.439,2.668-3.659,6.175-3.659,10.596l0.382,3.278h0.838C735.138,125.252,736.434,121.288,736.434,118.696z"></path> <path style="fill:#222222;" d="M745.81,177.743c-4.379,0-6.599-3.323-6.599-9.877c0-5.051,1.665-14.537,5.087-28.983 c-2.283,0.949-4.771,1.43-7.407,1.43c-5.355,0-9.078-2.7-11.065-8.025l-0.875-5.43l0.011-0.074 c1.475-10.555,4.514-15.906,9.033-15.906h2.058c2.98,0,5.066,2.177,6.201,6.471l0.017,0.128v2.439 c0,3.65-1.655,8.261-4.921,13.714c2.806-0.245,6.717-1.569,11.906-4.027l0.214-0.048c2.142,0,3.321,1.044,3.321,2.939 l-0.017,0.126c-4.542,17.411-6.845,29.141-6.845,34.865c0,1.019,0.088,2.114,0.261,3.267c4.234-2.413,9.428-7.988,15.449-16.59 l16.463-23.388h0.26c2.239,0,3.588,0.651,4.123,1.992l0.036,0.186v1.22c0,1.739-2.587,7.33-24.959,35.681 C752.323,175.176,748.491,177.743,745.81,177.743z M744.482,137.711h1.122l-0.146,0.616c-3.53,14.814-5.247,24.477-5.247,29.539 c0,5.974,1.831,8.877,5.599,8.877c2.366,0,6.068-2.541,11.003-7.551c20.415-25.877,24.708-33.332,24.708-35.021v-1.117 c-0.376-0.817-1.327-1.236-2.902-1.276l-16.161,22.959c-6.406,9.151-11.932,14.95-16.421,17.233l-0.602,0.307l-0.117-0.665 c-0.258-1.462-0.389-2.851-0.389-4.127c0-5.802,2.309-17.596,6.861-35.054c-0.013-0.871-0.3-1.84-2.211-1.876 c-5.863,2.77-10.164,4.116-13.146,4.116h-0.897l0.473-0.763c3.49-5.645,5.261-10.353,5.261-13.993v-2.374 c-1.02-3.811-2.728-5.664-5.218-5.664h-2.058c-3.933,0-6.635,5.036-8.032,14.971l0.826,5.186 c1.801,4.797,5.208,7.278,10.103,7.278c2.686,0,5.206-0.524,7.493-1.557L744.482,137.711z M732.695,131.012h-1.586l-0.434-3.721 c-0.003-4.562,1.272-8.241,3.787-10.991l0.209-0.229l0.298,0.085c1.284,0.367,1.964,1.245,1.964,2.539 c0,2.784-1.379,6.837-4.098,12.048L732.695,131.012z M731.999,130.012h0.09c2.516-4.87,3.845-8.779,3.845-11.316 c0-0.744-0.295-1.21-0.949-1.478c-2.228,2.562-3.312,5.842-3.312,10.016L731.999,130.012z"></path> </g> </g> </svg> 